<svg xmlns="http://www.w3.org/2000/svg" width="340" height="200" viewBox="0 0 340 200" font-family="'Segoe UI', Ubuntu, Sans-Serif">
  <rect x="0.5" y="0.5" width="339" height="199" rx="6" fill="#ffffff" stroke="#e4e2e2" stroke-opacity="1.00"/>
  <text x="20" y="30" font-size="15" font-weight="600" fill="#0366d6">Most Commit Language (last year)</text>
  <rect x="20" y="47" width="10" height="10" fill="#e34c26" stroke="#ffffff" stroke-width="1"/>
  <text x="36" y="55" font-size="11" fill="#586069">HTML 45.73%</text>
  <rect x="20" y="67" width="10" height="10" fill="#f1e05a" stroke="#ffffff" stroke-width="1"/>
  <text x="36" y="75" font-size="11" fill="#586069">JavaScript 20.63%</text>
  <rect x="20" y="87" width="10" height="10" fill="#663399" stroke="#ffffff" stroke-width="1"/>
  <text x="36" y="95" font-size="11" fill="#586069">CSS 15.72%</text>
  <rect x="20" y="107" width="10" height="10" fill="#3572A5" stroke="#ffffff" stroke-width="1"/>
  <text x="36" y="115" font-size="11" fill="#586069">Python 12.50%</text>
  <rect x="20" y="127" width="10" height="10" fill="#3178c6" stroke="#ffffff" stroke-width="1"/>
  <text x="36" y="135" font-size="11" fill="#586069">TypeScript 5.43%</text>
  <path d="M250.00,55.00 A55.00,55.00 0 0 1 264.59,163.03 L257.96,138.92 A30.00,30.00 0 0 0 250.00,80.00 Z" fill="#e34c26" stroke="#ffffff" stroke-width="1.5"/>
  <path d="M264.59,163.03 A55.00,55.00 0 0 1 202.92,138.43 L224.32,125.51 A30.00,30.00 0 0 0 257.96,138.92 Z" fill="#f1e05a" stroke="#ffffff" stroke-width="1.5"/>
  <path d="M202.92,138.43 A55.00,55.00 0 0 1 200.34,86.35 L222.91,97.10 A30.00,30.00 0 0 0 224.32,125.51 Z" fill="#663399" stroke="#ffffff" stroke-width="1.5"/>
  <path d="M200.34,86.35 A55.00,55.00 0 0 1 231.61,58.17 L239.97,81.73 A30.00,30.00 0 0 0 222.91,97.10 Z" fill="#3572A5" stroke="#ffffff" stroke-width="1.5"/>
  <path d="M231.61,58.17 A55.00,55.00 0 0 1 250.00,55.00 L250.00,80.00 A30.00,30.00 0 0 0 239.97,81.73 Z" fill="#3178c6" stroke="#ffffff" stroke-width="1.5"/>
</svg>