<svg xmlns="http://www.w3.org/2000/svg" width="340" height="200" viewBox="0 0 340 200" font-family="'Segoe UI', Ubuntu, Sans-Serif">
  <rect x="0.5" y="0.5" width="339" height="199" rx="6" fill="#ffffff" stroke="#e4e2e2" stroke-opacity="1.00"/>
  <text x="20" y="30" font-size="15" font-weight="600" fill="#0366d6">Most Commit Language (all time)</text>
  <rect x="20" y="47" width="10" height="10" fill="#e34c26" stroke="#ffffff" stroke-width="1"/>
  <text x="36" y="55" font-size="11" fill="#586069">HTML 51.63%</text>
  <rect x="20" y="67" width="10" height="10" fill="#f1e05a" stroke="#ffffff" stroke-width="1"/>
  <text x="36" y="75" font-size="11" fill="#586069">JavaScript 18.01%</text>
  <rect x="20" y="87" width="10" height="10" fill="#663399" stroke="#ffffff" stroke-width="1"/>
  <text x="36" y="95" font-size="11" fill="#586069">CSS 14.71%</text>
  <rect x="20" y="107" width="10" height="10" fill="#3572A5" stroke="#ffffff" stroke-width="1"/>
  <text x="36" y="115" font-size="11" fill="#586069">Python 11.06%</text>
  <rect x="20" y="127" width="10" height="10" fill="#3178c6" stroke="#ffffff" stroke-width="1"/>
  <text x="36" y="135" font-size="11" fill="#586069">TypeScript 4.59%</text>
  <path d="M250.00,55.00 A55.00,55.00 0 1 1 244.38,164.71 L246.94,139.84 A30.00,30.00 0 1 0 250.00,80.00 Z" fill="#e34c26" stroke="#ffffff" stroke-width="1.5"/>
  <path d="M244.38,164.71 A55.00,55.00 0 0 1 198.09,128.18 L221.69,119.92 A30.00,30.00 0 0 0 246.94,139.84 Z" fill="#f1e05a" stroke="#ffffff" stroke-width="1.5"/>
  <path d="M198.09,128.18 A55.00,55.00 0 0 1 204.22,79.51 L225.03,93.37 A30.00,30.00 0 0 0 221.69,119.92 Z" fill="#663399" stroke="#ffffff" stroke-width="1.5"/>
  <path d="M204.22,79.51 A55.00,55.00 0 0 1 234.35,57.27 L241.47,81.24 A30.00,30.00 0 0 0 225.03,93.37 Z" fill="#3572A5" stroke="#ffffff" stroke-width="1.5"/>
  <path d="M234.35,57.27 A55.00,55.00 0 0 1 250.00,55.00 L250.00,80.00 A30.00,30.00 0 0 0 241.47,81.24 Z" fill="#3178c6" stroke="#ffffff" stroke-width="1.5"/>
</svg>