<svg xmlns="http://www.w3.org/2000/svg" width="340" height="200" viewBox="0 0 340 200" font-family="'Segoe UI', Ubuntu, Sans-Serif">
  <rect x="0.5" y="0.5" width="339" height="199" rx="6" fill="#ffffff" stroke="#e4e2e2" stroke-opacity="1.00"/>
  <text x="20" y="30" font-size="15" font-weight="600" fill="#0366d6">Most Commit Language (all time)</text>
  <rect x="20" y="47" width="10" height="10" fill="#e34c26" stroke="#ffffff" stroke-width="1"/>
  <text x="36" y="55" font-size="11" fill="#586069">HTML 50.28%</text>
  <rect x="20" y="67" width="10" height="10" fill="#f1e05a" stroke="#ffffff" stroke-width="1"/>
  <text x="36" y="75" font-size="11" fill="#586069">JavaScript 19.79%</text>
  <rect x="20" y="87" width="10" height="10" fill="#663399" stroke="#ffffff" stroke-width="1"/>
  <text x="36" y="95" font-size="11" fill="#586069">CSS 14.72%</text>
  <rect x="20" y="107" width="10" height="10" fill="#3572A5" stroke="#ffffff" stroke-width="1"/>
  <text x="36" y="115" font-size="11" fill="#586069">Python 10.75%</text>
  <rect x="20" y="127" width="10" height="10" fill="#3178c6" stroke="#ffffff" stroke-width="1"/>
  <text x="36" y="135" font-size="11" fill="#586069">TypeScript 4.46%</text>
  <path d="M250.00,55.00 A55.00,55.00 0 1 1 249.02,164.99 L249.46,140.00 A30.00,30.00 0 1 0 250.00,80.00 Z" fill="#e34c26" stroke="#ffffff" stroke-width="1.5"/>
  <path d="M249.02,164.99 A55.00,55.00 0 0 1 197.62,126.76 L221.43,119.14 A30.00,30.00 0 0 0 249.46,140.00 Z" fill="#f1e05a" stroke="#ffffff" stroke-width="1.5"/>
  <path d="M197.62,126.76 A55.00,55.00 0 0 1 205.08,78.26 L225.50,92.69 A30.00,30.00 0 0 0 221.43,119.14 Z" fill="#663399" stroke="#ffffff" stroke-width="1.5"/>
  <path d="M205.08,78.26 A55.00,55.00 0 0 1 234.78,57.15 L241.70,81.17 A30.00,30.00 0 0 0 225.50,92.69 Z" fill="#3572A5" stroke="#ffffff" stroke-width="1.5"/>
  <path d="M234.78,57.15 A55.00,55.00 0 0 1 250.00,55.00 L250.00,80.00 A30.00,30.00 0 0 0 241.70,81.17 Z" fill="#3178c6" stroke="#ffffff" stroke-width="1.5"/>
</svg>