<svg xmlns="http://www.w3.org/2000/svg" width="340" height="200" viewBox="0 0 340 200" font-family="'Segoe UI', Ubuntu, Sans-Serif">
  <rect x="0.5" y="0.5" width="339" height="199" rx="6" fill="#ffffff" stroke="#e4e2e2" stroke-opacity="1.00"/>
  <text x="20" y="30" font-size="15" font-weight="600" fill="#0366d6">Repos Per Language</text>
  <rect x="20" y="47" width="10" height="10" fill="#e34c26" stroke="#ffffff" stroke-width="1"/>
  <text x="36" y="55" font-size="11" fill="#586069">HTML 30.00%</text>
  <rect x="20" y="67" width="10" height="10" fill="#3572A5" stroke="#ffffff" stroke-width="1"/>
  <text x="36" y="75" font-size="11" fill="#586069">Python 30.00%</text>
  <rect x="20" y="87" width="10" height="10" fill="#f1e05a" stroke="#ffffff" stroke-width="1"/>
  <text x="36" y="95" font-size="11" fill="#586069">JavaScript 20.00%</text>
  <rect x="20" y="107" width="10" height="10" fill="#663399" stroke="#ffffff" stroke-width="1"/>
  <text x="36" y="115" font-size="11" fill="#586069">CSS 10.00%</text>
  <rect x="20" y="127" width="10" height="10" fill="#3178c6" stroke="#ffffff" stroke-width="1"/>
  <text x="36" y="135" font-size="11" fill="#586069">TypeScript 10.00%</text>
  <path d="M250.00,55.00 A55.00,55.00 0 0 1 302.31,127.00 L278.53,119.27 A30.00,30.00 0 0 0 250.00,80.00 Z" fill="#e34c26" stroke="#ffffff" stroke-width="1.5"/>
  <path d="M302.31,127.00 A55.00,55.00 0 0 1 217.67,154.50 L232.37,134.27 A30.00,30.00 0 0 0 278.53,119.27 Z" fill="#3572A5" stroke="#ffffff" stroke-width="1.5"/>
  <path d="M217.67,154.50 A55.00,55.00 0 0 1 197.69,93.00 L221.47,100.73 A30.00,30.00 0 0 0 232.37,134.27 Z" fill="#f1e05a" stroke="#ffffff" stroke-width="1.5"/>
  <path d="M197.69,93.00 A55.00,55.00 0 0 1 217.67,65.50 L232.37,85.73 A30.00,30.00 0 0 0 221.47,100.73 Z" fill="#663399" stroke="#ffffff" stroke-width="1.5"/>
  <path d="M217.67,65.50 A55.00,55.00 0 0 1 250.00,55.00 L250.00,80.00 A30.00,30.00 0 0 0 232.37,85.73 Z" fill="#3178c6" stroke="#ffffff" stroke-width="1.5"/>
</svg>