<svg xmlns="http://www.w3.org/2000/svg" width="340" height="200" viewBox="0 0 340 200" font-family="'Segoe UI', Ubuntu, Sans-Serif">
  <rect x="0.5" y="0.5" width="339" height="199" rx="6" fill="#0d1117" stroke="#2e343b" stroke-opacity="1.00"/>
  <text x="20" y="30" font-size="15" font-weight="600" fill="#0366d6">Most Commit Language (last year)</text>
  <rect x="20" y="47" width="10" height="10" fill="#3572A5" stroke="#0d1117" stroke-width="1"/>
  <text x="36" y="55" font-size="11" fill="#77909c">Python 50.00%</text>
  <rect x="20" y="67" width="10" height="10" fill="#e34c26" stroke="#0d1117" stroke-width="1"/>
  <text x="36" y="75" font-size="11" fill="#77909c">HTML 27.23%</text>
  <rect x="20" y="87" width="10" height="10" fill="#f1e05a" stroke="#0d1117" stroke-width="1"/>
  <text x="36" y="95" font-size="11" fill="#77909c">JavaScript 12.16%</text>
  <rect x="20" y="107" width="10" height="10" fill="#663399" stroke="#0d1117" stroke-width="1"/>
  <text x="36" y="115" font-size="11" fill="#77909c">CSS 10.61%</text>
  <path d="M250.00,55.00 A55.00,55.00 0 1 1 249.99,165.00 L249.99,140.00 A30.00,30.00 0 1 0 250.00,80.00 Z" fill="#3572A5" stroke="#0d1117" stroke-width="1.5"/>
  <path d="M249.99,165.00 A55.00,55.00 0 0 1 195.54,102.29 L220.30,105.80 A30.00,30.00 0 0 0 249.99,140.00 Z" fill="#e34c26" stroke="#0d1117" stroke-width="1.5"/>
  <path d="M195.54,102.29 A55.00,55.00 0 0 1 216.00,66.77 L231.45,86.42 A30.00,30.00 0 0 0 220.30,105.80 Z" fill="#f1e05a" stroke="#0d1117" stroke-width="1.5"/>
  <path d="M216.00,66.77 A55.00,55.00 0 0 1 250.00,55.00 L250.00,80.00 A30.00,30.00 0 0 0 231.45,86.42 Z" fill="#663399" stroke="#0d1117" stroke-width="1.5"/>
</svg>